<svg xmlns="http://www.w3.org/2000/svg" width="22" height="14" viewBox="0 0 22 14">
    <defs>
        <style>
            .cls-1{fill:#052971}
        </style>
    </defs>
    <g id="ic-ecommerce-money" transform="translate(-1 -5)">
        <g id="Layer">
            <path id="Path_205" d="M20 5H4a3 3 0 0 0-3 3v8a3 3 0 0 0 3 3h16a3 3 0 0 0 3-3V8a3 3 0 0 0-3-3zm-2.91 12H6.91A4.81 4.81 0 0 0 3 13.09v-2.18A4.81 4.81 0 0 0 6.91 7h10.18A4.81 4.81 0 0 0 21 10.91v2.18A4.81 4.81 0 0 0 17.09 17zM20 7a1 1 0 0 1 1 1v.87A2.86 2.86 0 0 1 19.13 7zM4.87 7A2.86 2.86 0 0 1 3 8.87V8a1 1 0 0 1 1-1zM4 17a1 1 0 0 1-1-1v-.87A2.86 2.86 0 0 1 4.87 17zm15.13 0A2.86 2.86 0 0 1 21 15.13V16a1 1 0 0 1-1 1z" class="cls-1"/>
        </g>
        <g id="Layer-2">
            <path id="Path_206" d="M12.34 8.72a3 3 0 1 0 3 3 3 3 0 0 0-3-3zm0 4a1 1 0 1 1 1-1 1 1 0 0 1-1 1z" class="cls-1"/>
        </g>
    </g>
</svg>
