<svg id="ic-ecommerce-money" xmlns="http://www.w3.org/2000/svg" width="24" height="24" viewBox="0 0 24 24">
    <defs>
        <style>
            .cls-1{fill:#052971}
        </style>
    </defs>
  <g id="ic-ecommerce-money-2" data-name="ic-ecommerce-money">
    <g id="Layer">
      <path id="Path_205" data-name="Path 205" d="M20,5H4A3,3,0,0,0,1,8v8a3,3,0,0,0,3,3H20a3,3,0,0,0,3-3V8A3,3,0,0,0,20,5ZM17.09,17H6.91A4.81,4.81,0,0,0,3,13.09V10.91A4.81,4.81,0,0,0,6.91,7H17.09A4.81,4.81,0,0,0,21,10.91v2.18A4.81,4.81,0,0,0,17.09,17ZM20,7a1,1,0,0,1,1,1v.87A2.86,2.86,0,0,1,19.13,7ZM4.87,7A2.86,2.86,0,0,1,3,8.87V8A1,1,0,0,1,4,7ZM4,17a1,1,0,0,1-1-1v-.87A2.86,2.86,0,0,1,4.87,17Zm15.13,0A2.86,2.86,0,0,1,21,15.13V16a1,1,0,0,1-1,1Z" fill="#052971"/>
    </g>
    <g id="Layer-2" data-name="Layer">
      <path id="Path_206" data-name="Path 206" d="M12.34,8.72a3,3,0,1,0,3,3,3,3,0,0,0-3-3Zm0,4a1,1,0,1,1,1-1A1,1,0,0,1,12.34,12.72Z" fill="#052971"/>
    </g>
  </g>
</svg>
