<svg xmlns="http://www.w3.org/2000/svg" width="227.183" height="30.336" viewBox="0 0 227.183 30.336">
  <g id="logo-kooche" transform="translate(0 0)">
    <g id="Group_73" data-name="Group 73" transform="translate(0 1.321)">
      <rect id="Rectangle_33" data-name="Rectangle 33" width="3.785" height="3.869" rx="1.893" transform="translate(32.164 24.855)" fill="#f99300"/>
      <rect id="Rectangle_34" data-name="Rectangle 34" width="3.785" height="3.869" rx="1.893" transform="translate(86.91 24.855)" fill="#f99300"/>
      <rect id="Rectangle_35" data-name="Rectangle 35" width="3.785" height="3.852" rx="1.892" transform="translate(91.848 24.864)" fill="#f99300"/>
      <rect id="Rectangle_36" data-name="Rectangle 36" width="3.785" height="3.869" rx="1.893" transform="translate(96.785 24.855)" fill="#f99300"/>
      <g id="Group_72" data-name="Group 72">
        <g id="Group_68" data-name="Group 68">
          <path id="Path_72" data-name="Path 72" d="M195.3,418.527a11.065,11.065,0,0,1-3.962,4.206,10.276,10.276,0,0,1-13.062-1.951,11.83,11.83,0,0,1-3.2-8.311v-1.438a1.943,1.943,0,0,1,1.943-1.943h0a1.943,1.943,0,0,1,1.942,1.943v.984a9.46,9.46,0,0,0,1.96,6.081,6.184,6.184,0,0,0,5.072,2.464,6.12,6.12,0,0,0,4.988-2.447,9.448,9.448,0,0,0,1.96-6.1V398.256a1.951,1.951,0,0,1,1.951-1.951h0a1.951,1.951,0,0,1,1.951,1.951v14.215a11.974,11.974,0,0,1-.2,2.137h5.82v3.919Z" transform="translate(-175.077 -396.305)" fill="#f99300"/>
        </g>
        <path id="Path_73" data-name="Path 73" d="M215.889,422.332v-3.919h3.583a2.347,2.347,0,0,0,2.3-1.178,5.84,5.84,0,0,0,.42-2.624V408.6a1.91,1.91,0,0,1,1.91-1.909h0a1.909,1.909,0,0,1,1.909,1.909v5.812q0,3.028-.824,4H231.8v3.919Z" transform="translate(-190.033 -400.11)" fill="#f99300"/>
        <path id="Path_74" data-name="Path 74" d="M330.474,422.332h-16.26v-3.919h13.1a1.3,1.3,0,0,0,1.292-1.482,8.063,8.063,0,0,0-1.7-4,7.129,7.129,0,0,0-5.922-2.624,7.445,7.445,0,0,0-2.893.656,8.523,8.523,0,0,0-2.017,1.156,1.278,1.278,0,0,1-1.869-.339l-.019-.031a2.2,2.2,0,0,1,.634-2.986,13.053,13.053,0,0,1,1.992-1.1,11.891,11.891,0,0,1,11.17.925q4.9,3.23,4.9,11.339h0A2.406,2.406,0,0,1,330.474,422.332Z" transform="translate(-225.933 -400.11)" fill="#f99300"/>
        <g id="Group_69" data-name="Group 69" transform="translate(40.421 6.56)">
          <path id="Path_75" data-name="Path 75" d="M243.556,422.339h-4.677v-3.92h4.71v-4a7.887,7.887,0,0,1,2.019-5.568,6.7,6.7,0,0,1,5.148-2.187,7.609,7.609,0,0,1,5.518,2.137,7.343,7.343,0,0,1,2.2,5.518,7.969,7.969,0,0,1-2.2,5.7,7.081,7.081,0,0,1-5.333,2.321h-3.7m.219-3.92h3.4a3.321,3.321,0,0,0,2.633-1.261,4.557,4.557,0,0,0,1.068-3.045,3.94,3.94,0,0,0-1.017-2.834,3.578,3.578,0,0,0-2.717-1.068,3,3,0,0,0-2.321.95,4.3,4.3,0,0,0-1.043,2.532Z" transform="translate(-238.879 -406.66)" fill="#f99300"/>
        </g>
        <g id="Group_70" data-name="Group 70" transform="translate(70.672 6.542)">
          <path id="Path_76" data-name="Path 76" d="M297.866,422.31h-3.7a7.086,7.086,0,0,1-5.333-2.321,7.971,7.971,0,0,1-2.2-5.7,7.347,7.347,0,0,1,2.2-5.518,7.614,7.614,0,0,1,5.518-2.136,6.7,6.7,0,0,1,5.148,2.187,7.887,7.887,0,0,1,2.019,5.568v4h4.71v3.92H301.55m-3.9-8.647a4.3,4.3,0,0,0-1.043-2.532,3,3,0,0,0-2.321-.95,3.578,3.578,0,0,0-2.717,1.068,3.94,3.94,0,0,0-1.017,2.834,4.557,4.557,0,0,0,1.068,3.045,3.32,3.32,0,0,0,2.633,1.261h3.4Z" transform="translate(-286.628 -406.631)" fill="#f99300"/>
        </g>
        <g id="Group_71" data-name="Group 71" transform="translate(109.956)">
          <path id="Path_77" data-name="Path 77" d="M363.556,422.312q-.792,5.687-7.52,5.686v-3.028a3.57,3.57,0,0,0,3.835-2.658h-3.7a7.083,7.083,0,0,1-5.333-2.321,7.969,7.969,0,0,1-2.2-5.7,7.345,7.345,0,0,1,2.2-5.518,7.611,7.611,0,0,1,5.518-2.136,6.7,6.7,0,0,1,5.148,2.187,7.889,7.889,0,0,1,2.019,5.568v4h4.71v3.919Zm-3.9-8.647a4.3,4.3,0,0,0-1.043-2.532,3,3,0,0,0-2.321-.95,3.577,3.577,0,0,0-2.717,1.068,3.938,3.938,0,0,0-1.017,2.834,4.556,4.556,0,0,0,1.068,3.045,3.319,3.319,0,0,0,2.633,1.262h3.4Z" transform="translate(-348.634 -400.09)" fill="#f99300"/>
          <path id="Path_78" data-name="Path 78" d="M388.632,418.527H375.315v-3.919h8.653c.713,0,2.237-1.112,2.286-1.823.162-2.371.085-2.771-.892-3.96-1.447-1.749-3.221-2.326-5.744-2.326H378.19a2.171,2.171,0,0,1-1.808-3.373l4.536-6.821h0a2.371,2.371,0,0,1,1.937,3.738l-1.034,1.465c-.408.577-1.041,1.443-.334,1.443l-1.433-.069a12.772,12.772,0,0,1,7.482,2.884c2.959,2.47,2.369,7.656,2.381,10.3C389.924,417.441,389.961,418.527,388.632,418.527Z" transform="translate(-358.411 -396.305)" fill="#f99300"/>
        </g>
      </g>
    </g>
    <g id="Group_74" data-name="Group 74" transform="translate(178.286 0.251)">
      <ellipse id="Ellipse_13" data-name="Ellipse 13" cx="2.701" cy="2.701" rx="2.701" ry="2.701" transform="translate(0.297 0.297)" fill="#f99300"/>
      <path id="Path_79" data-name="Path 79" d="M459.486,400.612a3,3,0,1,1,3-3A3,3,0,0,1,459.486,400.612Zm0-5.4a2.4,2.4,0,1,0,2.4,2.4A2.406,2.406,0,0,0,459.486,395.21Z" transform="translate(-456.488 -394.616)" fill="#f99300"/>
    </g>
    <g id="Group_75" data-name="Group 75" transform="translate(184.767 0)">
      <circle id="Ellipse_14" data-name="Ellipse 14" cx="2.701" cy="2.701" r="2.701" transform="translate(0 1.241) rotate(-13.283)" fill="#f99300"/>
      <path id="Path_80" data-name="Path 80" d="M470.113,400.612a3,3,0,1,1,3-3A3,3,0,0,1,470.113,400.612Zm0-5.4a2.4,2.4,0,1,0,2.4,2.4A2.406,2.406,0,0,0,470.113,395.21Z" transform="translate(-466.864 -394.365)" fill="#f99300"/>
    </g>
    <g id="Group_76" data-name="Group 76" transform="translate(184.197 5.978)">
      <circle id="Ellipse_15" data-name="Ellipse 15" cx="2.701" cy="2.701" r="2.701" transform="translate(0 3.82) rotate(-45)" fill="#f99300"/>
      <path id="Path_81" data-name="Path 81" d="M470.113,410.948a3,3,0,1,1,3-3A3,3,0,0,1,470.113,410.948Zm0-5.4a2.4,2.4,0,1,0,2.4,2.4A2.406,2.406,0,0,0,470.113,405.546Z" transform="translate(-466.293 -404.13)" fill="#f99300"/>
    </g>
    <g id="Group_77" data-name="Group 77" transform="translate(178.186 6.7)">
      <ellipse id="Ellipse_16" data-name="Ellipse 16" cx="2.701" cy="2.701" rx="2.701" ry="2.701" transform="translate(0 0.861) rotate(-9.175)" fill="#f99300"/>
      <path id="Path_82" data-name="Path 82" d="M459.486,410.948a3,3,0,1,1,3-3A3,3,0,0,1,459.486,410.948Zm0-5.4a2.4,2.4,0,1,0,2.4,2.4A2.406,2.406,0,0,0,459.486,405.546Z" transform="translate(-456.389 -404.853)" fill="#f99300"/>
    </g>
    <g id="Group_78" data-name="Group 78" transform="translate(141.502 0.727)">
      <path id="Path_83" data-name="Path 83" d="M482.55,395.836a14.265,14.265,0,0,0-14.25,14.249v7.134H414.581v-7.134a14.265,14.265,0,0,0-14.25-14.249,1.435,1.435,0,0,0,0,2.869,11.394,11.394,0,0,1,11.38,11.38v14.767h2.869v-4.764H468.3v4.764h2.869V410.085a11.394,11.394,0,0,1,11.38-11.38,1.435,1.435,0,0,0,0-2.869Z" transform="translate(-398.6 -395.539)" fill="#f99300"/>
      <path id="Path_84" data-name="Path 84" d="M471.295,424.976h-3.464v-4.763H414.706v4.763h-3.464V409.914a11.1,11.1,0,0,0-11.083-11.083,1.732,1.732,0,0,1,0-3.464,14.563,14.563,0,0,1,14.547,14.547v6.836h53.125v-6.836a14.563,14.563,0,0,1,14.547-14.547,1.732,1.732,0,0,1,0,3.464,11.1,11.1,0,0,0-11.083,11.083Zm-2.869-.594H470.7V409.914a11.69,11.69,0,0,1,11.677-11.677,1.138,1.138,0,0,0,0-2.275,13.968,13.968,0,0,0-13.953,13.952v7.43H414.112v-7.43a13.968,13.968,0,0,0-13.952-13.952,1.138,1.138,0,1,0,0,2.275,11.691,11.691,0,0,1,11.677,11.677v14.469h2.275v-4.764h54.313Z" transform="translate(-398.428 -395.367)" fill="#f99300"/>
    </g>
  </g>
</svg>
