<svg xmlns="http://www.w3.org/2000/svg" width="20" height="21.919" viewBox="0 0 20 21.919">
    <g>
        <path fill="#052971" fill-rule="evenodd" d="M21.85 11.67A4.43 4.43 0 0 0 20 9.92V4.31A1.53 1.53 0 0 0 19.22 3 14.54 14.54 0 0 0 4.78 3 1.53 1.53 0 0 0 4 4.31v5.61a4.43 4.43 0 0 0-1.85 1.75 1.13 1.13 0 0 0-.15.57V18a3 3 0 0 0 3 3v1a1 1 0 0 0 2 0v-1h10v1a1 1 0 0 0 2 0v-1a3 3 0 0 0 3-3v-5.76a1.13 1.13 0 0 0-.15-.57zm-1.85.82v1.44a36.421 36.421 0 0 0-4-.71v-.73a2.44 2.44 0 0 1 4 0zM6 4.58a12.58 12.58 0 0 1 12 0v4.87a4.41 4.41 0 0 0-3.85 2.22 1.13 1.13 0 0 0-.15.57v.81a33.359 33.359 0 0 0-4 0v-.81a1.13 1.13 0 0 0-.15-.57A4.41 4.41 0 0 0 6 9.45zm2 7.91v.73a36.42 36.42 0 0 0-4 .71v-1.44a2.44 2.44 0 0 1 4 0zM19 19H5a1 1 0 0 1-1-1v-1.75a.35.35 0 0 1 .26-.33 32.67 32.67 0 0 1 15.48 0 .35.35 0 0 1 .26.33V18a1 1 0 0 1-1 1z" transform="translate(-2 -1.081)"/>
    </g>
</svg>
