<svg xmlns="http://www.w3.org/2000/svg" width="24" height="24" viewBox="0 0 24 24">
  <g id="Group_761" data-name="Group 761" transform="translate(-1294 -461)">
    <circle id="Ellipse_29" data-name="Ellipse 29" cx="12" cy="12" r="12" transform="translate(1294 461)" fill="#f99300"/>
    <g id="ic-actions-settings" transform="translate(1298.286 465.286)">
      <rect id="Rectangle_53" data-name="Rectangle 53" width="15.429" height="15.429" fill="none"/>
      <g id="Layer" transform="translate(0.613 0.623)">
        <g id="ic-actions1-03">
          <path id="Path_110" data-name="Path 110" d="M10.595,8a2.595,2.595,0,1,0,2.595,2.595A2.595,2.595,0,0,0,10.595,8Zm0,3.892a1.3,1.3,0,1,1,1.3-1.3A1.3,1.3,0,0,1,10.595,11.892Z" transform="translate(-3.459 -3.459)" fill="#fff" fill-rule="evenodd"/>
          <path id="Path_111" data-name="Path 111" d="M13.577,5.884a1.946,1.946,0,0,0-.169-2.562l-.461-.461a1.946,1.946,0,0,0-2.595-.169A1.946,1.946,0,0,0,8.459,1H7.811A1.946,1.946,0,0,0,5.865,2.693,1.946,1.946,0,0,0,3.3,2.862l-.461.461a1.946,1.946,0,0,0-.169,2.562A1.946,1.946,0,0,0,1,7.811v.649a1.946,1.946,0,0,0,1.693,1.946A1.946,1.946,0,0,0,2.862,13l.461.461a1.946,1.946,0,0,0,2.562.169A1.946,1.946,0,0,0,7.83,15.322h.649a1.946,1.946,0,0,0,1.946-1.693,1.946,1.946,0,0,0,2.595-.169L13.48,13a1.946,1.946,0,0,0,.169-2.595,1.946,1.946,0,0,0,1.693-1.946V7.811a1.946,1.946,0,0,0-1.764-1.926Zm.4,2.595a.649.649,0,0,1-.649.649,1.174,1.174,0,0,0-.83,2.011.649.649,0,0,1,0,.915l-.461.461a.649.649,0,0,1-.915,0,1.174,1.174,0,0,0-2.011.811.649.649,0,0,1-.649.649H7.811a.649.649,0,0,1-.649-.649,1.174,1.174,0,0,0-2.011-.83.649.649,0,0,1-.915,0l-.461-.467a.649.649,0,0,1,0-.915,1.174,1.174,0,0,0-.83-2A.649.649,0,0,1,2.3,8.459V7.811a.649.649,0,0,1,.649-.649,1.174,1.174,0,0,0,.83-2.011.649.649,0,0,1,0-.908l.467-.467a.649.649,0,0,1,.915,0,1.174,1.174,0,0,0,2-.83A.649.649,0,0,1,7.811,2.3h.649a.649.649,0,0,1,.649.649,1.174,1.174,0,0,0,2.011.83.649.649,0,0,1,.915,0l.461.461a.649.649,0,0,1,0,.915,1.174,1.174,0,0,0,.83,2.011.649.649,0,0,1,.649.649Z" transform="translate(-1 -1)" fill="#fff" fill-rule="evenodd"/>
        </g>
      </g>
    </g>
  </g>
</svg>
