<svg xmlns="http://www.w3.org/2000/svg" width="23.803" height="20" viewBox="0 0 23.803 20">
    <g>
        <path fill="#052971" d="M20.68 2.74A1.21 1.21 0 0 0 19.57 2H4.43a1.21 1.21 0 0 0-1.11.74l-3.13 7.6A1.2 1.2 0 0 0 1.3 12h1.48v8H2a1 1 0 0 0 0 2h20a1 1 0 0 0 0-2h-1.22v-8h1.92a1.2 1.2 0 0 0 1.11-1.66zM8.78 20v-5h2v4.72a.88.88 0 0 0 .06.28zm4 0a1.26 1.26 0 0 0 0-.28V15h2v5zm6.05 0h-2v-5.8a1.2 1.2 0 0 0-1.2-1.2H8a1.2 1.2 0 0 0-1.2 1.2V20h-2v-8h1.63a1.18 1.18 0 0 0 .71-.23l2.11-1.53 2 1.48a1.2 1.2 0 0 0 1.42 0l2-1.48 2.11 1.53a1.17 1.17 0 0 0 .7.23h1.22zm-1-10l-2.37-1.72a1.2 1.2 0 0 0-1.42 0L12 9.76l-2-1.48a1.2 1.2 0 0 0-1.42 0L6.17 10H2.49L5 4h14l2.48 6z" transform="translate(-.098 -2)"/>
    </g>
</svg>
