<svg id="ic-actions-user" xmlns="http://www.w3.org/2000/svg" width="24" height="24" viewBox="0 0 24 24">
  <rect id="Rectangle_57" data-name="Rectangle 57" width="24" height="24" fill="none"/>
  <g id="Layer" transform="translate(0 0.002)">
    <g id="Vrstva_105" data-name="Vrstva 105">
      <path id="Path_117" data-name="Path 117" d="M15.7,11.72a6,6,0,1,0-7.4,0A10,10,0,0,0,2,21v1a1,1,0,0,0,2,0V21a8,8,0,0,1,16,0v1a1,1,0,0,0,2,0V21a10,10,0,0,0-6.3-9.28ZM8,7a4,4,0,1,1,4,4A4,4,0,0,1,8,7Z" fill="#052971" fill-rule="evenodd"/>
    </g>
  </g>
</svg>
