<svg id="ic-layout-left-menu" xmlns="http://www.w3.org/2000/svg" width="24" height="24" viewBox="0 0 24 24">
  <rect id="Rectangle_172" data-name="Rectangle 172" width="24" height="24" fill="none"/>
  <g id="Layer">
    <path id="Path_340" data-name="Path 340" d="M1,4A3,3,0,0,1,4,1H20a3,3,0,0,1,3,3V20a3,3,0,0,1-3,3H4a3,3,0,0,1-3-3ZM4,3A1,1,0,0,0,3,4V20a1,1,0,0,0,1,1H20a1,1,0,0,0,1-1V4a1,1,0,0,0-1-1Z" fill="#fff" fill-rule="evenodd"/>
    <path id="Path_341" data-name="Path 341" d="M1,4A3,3,0,0,1,4,1H20a3,3,0,0,1,3,3v7H1ZM4,3A1,1,0,0,0,3,4V9H21V4a1,1,0,0,0-1-1Z" fill="#fff" fill-rule="evenodd"/>
    <path id="Path_342" data-name="Path 342" d="M1,20a3,3,0,0,0,3,3h7V9H1Zm3,1a1,1,0,0,1-1-1V11H9V21Z" fill="#fff" fill-rule="evenodd"/>
  </g>
</svg>
