<svg xmlns="http://www.w3.org/2000/svg" width="83.961" height="52" viewBox="0 0 83.961 52">
  <g id="Group_41" data-name="Group 41" transform="translate(-308.44 -232.435)">
    <path id="Path_37" data-name="Path 37" d="M361.139,365.654a1.12,1.12,0,0,0-1.12,1.12v.05a1.12,1.12,0,1,0,2.24,0v-.05A1.12,1.12,0,0,0,361.139,365.654Z" transform="translate(-32.333 -83.509)" fill="#fff"/>
    <rect id="Rectangle_11" data-name="Rectangle 11" width="2.24" height="2.29" rx="1.12" transform="translate(360.089 282.145)" fill="#fff"/>
    <path id="Path_38" data-name="Path 38" d="M455.809,365.668h0a1.12,1.12,0,0,0-1.12,1.12v.04a1.12,1.12,0,0,0,1.12,1.12h0a1.12,1.12,0,0,0,1.12-1.12v-.04A1.12,1.12,0,0,0,455.809,365.668Z" transform="translate(-91.677 -83.518)" fill="#fff"/>
    <path id="Path_39" data-name="Path 39" d="M463.64,365.654h0a1.12,1.12,0,0,0-1.12,1.12v.05a1.12,1.12,0,0,0,1.12,1.12h0a1.12,1.12,0,0,0,1.12-1.12v-.05A1.12,1.12,0,0,0,463.64,365.654Z" transform="translate(-96.586 -83.509)" fill="#fff"/>
    <path id="Path_40" data-name="Path 40" d="M499.967,331.829a7.562,7.562,0,0,0-4.428-1.707l.848.041c-.418,0-.044-.513.2-.854l.612-.867a1.4,1.4,0,0,0-1.147-2.212l-2.685,4.037a1.285,1.285,0,0,0,1.07,2h.845a3.96,3.96,0,0,1,3.4,1.377c.578.7.624.941.528,2.344-.029.421-.931,1.079-1.353,1.079h-6.721v-2.37a4.669,4.669,0,0,0-1.195-3.3,3.963,3.963,0,0,0-3.047-1.294,4.506,4.506,0,0,0-3.266,1.265,4.347,4.347,0,0,0-1.3,3.266,4.717,4.717,0,0,0,1.3,3.375,4.192,4.192,0,0,0,3.156,1.374h2.191a2.113,2.113,0,0,1-2.27,1.573v1.793q3.982,0,4.451-3.366h9.461c.786,0,.765-.643.761-1.457C501.369,336.36,501.718,333.291,499.967,331.829Zm-11.123,5.233h-2.012a1.965,1.965,0,0,1-1.558-.747,2.7,2.7,0,0,1-.632-1.8,2.332,2.332,0,0,1,.6-1.678,2.118,2.118,0,0,1,1.608-.633,1.778,1.778,0,0,1,1.374.563,2.542,2.542,0,0,1,.618,1.5Z" transform="translate(-108.999 -58.795)" fill="#fff"/>
    <path id="Path_41" data-name="Path 41" d="M340.384,330.112a3.965,3.965,0,0,0-3.047,1.294,4.671,4.671,0,0,0-1.194,3.3v2.37l-2.421-.01h-3.913a3.942,3.942,0,0,0,.488-2.37v-3.44a1.13,1.13,0,1,0-2.26,0v3.559a3.455,3.455,0,0,1-.249,1.553,1.39,1.39,0,0,1-1.364.7h-4.66a7.087,7.087,0,0,0,.119-1.265v-8.414a1.155,1.155,0,0,0-2.31,0v8.145a5.593,5.593,0,0,1-1.16,3.609,3.622,3.622,0,0,1-2.952,1.449,3.66,3.66,0,0,1-3-1.459,5.6,5.6,0,0,1-1.16-3.6v-.582a1.15,1.15,0,1,0-2.3,0v.851a7,7,0,0,0,1.892,4.919,6.081,6.081,0,0,0,7.732,1.155,6.546,6.546,0,0,0,2.345-2.489h11.957v.01h7.57a4.192,4.192,0,0,0,3.156-1.374,4.717,4.717,0,0,0,1.3-3.375,4.348,4.348,0,0,0-1.3-3.266A4.5,4.5,0,0,0,340.384,330.112ZM342,336.325a1.964,1.964,0,0,1-1.558.747h-2.011v-2.8a2.542,2.542,0,0,1,.617-1.5,1.779,1.779,0,0,1,1.374-.563,2.117,2.117,0,0,1,1.608.632,2.331,2.331,0,0,1,.6,1.678A2.7,2.7,0,0,1,342,336.325Z" transform="translate(-0.35 -58.795)" fill="#fff"/>
    <g id="Group_40" data-name="Group 40" transform="translate(308.44 232.435)">
      <path id="Path_42" data-name="Path 42" d="M439.672,337.752a7.038,7.038,0,0,0-6.612-.547,7.693,7.693,0,0,0-1.179.649,1.3,1.3,0,0,0-.375,1.767l.012.019a.756.756,0,0,0,1.106.2,5.045,5.045,0,0,1,1.194-.684,4.405,4.405,0,0,1,1.713-.388,4.219,4.219,0,0,1,3.5,1.553,4.778,4.778,0,0,1,1.006,2.369.771.771,0,0,1-.765.877h-9.364V341.2a4.669,4.669,0,0,0-1.195-3.3,3.965,3.965,0,0,0-3.047-1.294,4.5,4.5,0,0,0-3.266,1.265,4.348,4.348,0,0,0-1.3,3.266,4.715,4.715,0,0,0,1.3,3.375,4.192,4.192,0,0,0,3.156,1.374h15.585a1.424,1.424,0,0,0,1.424-1.424h0Q442.569,339.664,439.672,337.752Zm-12.051,5.814H425.61a1.965,1.965,0,0,1-1.558-.747,2.7,2.7,0,0,1-.632-1.8,2.331,2.331,0,0,1,.6-1.678,2.118,2.118,0,0,1,1.608-.632,1.778,1.778,0,0,1,1.374.562,2.543,2.543,0,0,1,.617,1.5Z" transform="translate(-379.061 -297.735)" fill="#fff"/>
      <g id="Group_39" data-name="Group 39">
        <g id="Group_38" data-name="Group 38" transform="translate(36.164)">
          <circle id="Ellipse_1" data-name="Ellipse 1" cx="2.93" cy="2.93" r="2.93" transform="translate(0 0)" fill="#fff"/>
          <path id="Path_43" data-name="Path 43" d="M425.924,238.3a2.93,2.93,0,1,0-2.93-2.931A2.934,2.934,0,0,0,425.924,238.3Z" transform="translate(-416.413 -232.435)" fill="#fff"/>
          <path id="Path_44" data-name="Path 44" d="M425.924,249.588a2.93,2.93,0,1,0,2.93,2.93A2.934,2.934,0,0,0,425.924,249.588Z" transform="translate(-416.413 -243.188)" fill="#fff"/>
          <circle id="Ellipse_2" data-name="Ellipse 2" cx="2.93" cy="2.93" r="2.93" transform="translate(0 6.401)" fill="#fff"/>
        </g>
        <path id="Path_45" data-name="Path 45" d="M390.5,232.957a14.235,14.235,0,0,0-14.219,14.219v6.683H324.352v-6.683a14.235,14.235,0,0,0-14.219-14.219,1.693,1.693,0,1,0,0,3.386,10.846,10.846,0,0,1,10.833,10.833V261.9h3.385v-4.656h51.929V261.9h3.386V247.176A10.846,10.846,0,0,1,390.5,236.343a1.693,1.693,0,0,0,0-3.386Z" transform="translate(-308.44 -232.762)" fill="#fff"/>
      </g>
    </g>
  </g>
</svg>
