<svg id="ic-actions-settings" xmlns="http://www.w3.org/2000/svg" width="24" height="24" viewBox="0 0 24 24">
  <rect id="Rectangle_53" data-name="Rectangle 53" width="24" height="24" fill="none"/>
  <g id="Layer" transform="translate(-0.055 -0.04)">
    <g id="ic-actions1-03">
      <path id="Path_110" data-name="Path 110" d="M12,8a4,4,0,1,0,4,4A4,4,0,0,0,12,8Zm0,6a2,2,0,1,1,2-2A2,2,0,0,1,12,14Z" fill="#fff" fill-rule="evenodd"/>
      <path id="Path_111" data-name="Path 111" d="M20.39,8.53a3,3,0,0,0-.26-3.95l-.71-.71a3,3,0,0,0-4-.26A3,3,0,0,0,12.5,1h-1a3,3,0,0,0-3,2.61,3,3,0,0,0-3.95.26l-.71.71a3,3,0,0,0-.26,3.95A3,3,0,0,0,1,11.5v1a3,3,0,0,0,2.61,3,3,3,0,0,0,.26,4l.71.71a3,3,0,0,0,3.95.26,3,3,0,0,0,3,2.61h1a3,3,0,0,0,3-2.61,3,3,0,0,0,4-.26l.71-.71a3,3,0,0,0,.26-4,3,3,0,0,0,2.61-3v-1a3,3,0,0,0-2.72-2.97Zm.61,4a1,1,0,0,1-1,1,1.81,1.81,0,0,0-1.28,3.1,1,1,0,0,1,0,1.41l-.71.71a1,1,0,0,1-1.41,0A1.81,1.81,0,0,0,13.5,20a1,1,0,0,1-1,1h-1a1,1,0,0,1-1-1,1.81,1.81,0,0,0-3.1-1.28,1,1,0,0,1-1.41,0L5.28,18a1,1,0,0,1,0-1.41A1.81,1.81,0,0,0,4,13.5a1,1,0,0,1-1-1v-1a1,1,0,0,1,1-1A1.81,1.81,0,0,0,5.28,7.4a1,1,0,0,1,0-1.4L6,5.28a1,1,0,0,1,1.41,0A1.81,1.81,0,0,0,10.5,4a1,1,0,0,1,1-1h1a1,1,0,0,1,1,1,1.81,1.81,0,0,0,3.1,1.28,1,1,0,0,1,1.41,0l.71.71a1,1,0,0,1,0,1.41A1.81,1.81,0,0,0,20,10.5a1,1,0,0,1,1,1Z" fill="#fff" fill-rule="evenodd"/>
    </g>
  </g>
</svg>
